<svg width="20" height="18" viewBox="0 0 20 18" fill="none" xmlns="http://www.w3.org/2000/svg">
<path d="M10 0L20 18H0L10 0Z" fill="#C56B3E"/>
<path d="M9.03125 7H10.9687L10.6458 12.1638H9.35417L9.03125 7ZM10 15C9.71528 15 9.47569 14.9021 9.28125 14.7062C9.09375 14.5028 9 14.258 9 13.9718C9 13.6855 9.09375 13.4482 9.28125 13.2599C9.46875 13.064 9.70833 12.9661 10 12.9661C10.2917 12.9661 10.5313 13.064 10.7188 13.2599C10.9063 13.4482 11 13.6855 11 13.9718C11 14.258 10.9028 14.5028 10.7083 14.7062C10.5208 14.9021 10.2847 15 10 15Z" fill="white"/>
</svg>
